HIERARCHY
ROOT mixamorig:Hips
{
	OFFSET -0.000008 104.274872 1.554316
	CHANNELS 6 Xposition Yposition Zposition Xrotation Yrotation Zrotation
	JOINT mixamorig:Spine
	{
		OFFSET -0.000005 10.181595 0.131519
		CHANNELS 6 Xposition Yposition Zposition Xrotation Yrotation Zrotation
		JOINT mixamorig:Spine1
		{
			OFFSET -0.000000 9.893959 -1.470707
			CHANNELS 6 Xposition Yposition Zposition Xrotation Yrotation Zrotation
			JOINT mixamorig:Spine2
			{
				OFFSET -0.000000 9.220757 -1.370641
				CHANNELS 6 Xposition Yposition Zposition Xrotation Yrotation Zrotation
				JOINT mixamorig:Neck
				{
					OFFSET 0.000001 16.740417 -2.049036
					CHANNELS 6 Xposition Yposition Zposition Xrotation Yrotation Zrotation
					JOINT mixamorig:Head
					{
						OFFSET 0.000000 9.617874 1.685006
						CHANNELS 6 Xposition Yposition Zposition Xrotation Yrotation Zrotation
						JOINT mixamorig:HeadTop_End
						{
							OFFSET 0.000002 22.037354 7.501101
							CHANNELS 6 Xposition Yposition Zposition Xrotation Yrotation Zrotation
							End Site
							{
								OFFSET 0.000168 2310.654297 -282.823242
							}
						}
					}
				}
				JOINT mixamorig:RightShoulder
				{
					OFFSET -4.569970 11.014908 -2.160885
					CHANNELS 6 Xposition Yposition Zposition Xrotation Yrotation Zrotation
					JOINT mixamorig:RightArm
					{
						OFFSET -10.592851 -0.524811 -2.232101
						CHANNELS 6 Xposition Yposition Zposition Xrotation Yrotation Zrotation
						JOINT mixamorig:RightForeArm
						{
							OFFSET -27.841511 0.000031 -0.000004
							CHANNELS 6 Xposition Yposition Zposition Xrotation Yrotation Zrotation
							JOINT mixamorig:RightHand
							{
								OFFSET -28.328831 -0.000015 0.000015
								CHANNELS 6 Xposition Yposition Zposition Xrotation Yrotation Zrotation
								JOINT mixamorig:RightHandThumb1
								{
									OFFSET -2.464806 -1.573990 2.681852
									CHANNELS 6 Xposition Yposition Zposition Xrotation Yrotation Zrotation
									JOINT mixamorig:RightHandThumb2
									{
										OFFSET -3.215179 -1.872803 1.924282
										CHANNELS 6 Xposition Yposition Zposition Xrotation Yrotation Zrotation
										JOINT mixamorig:RightHandThumb3
										{
											OFFSET -2.654831 -1.527969 1.512609
											CHANNELS 6 Xposition Yposition Zposition Xrotation Yrotation Zrotation
											JOINT mixamorig:RightHandThumb4
											{
												OFFSET -2.018814 -1.152008 1.108052
												CHANNELS 6 Xposition Yposition Zposition Xrotation Yrotation Zrotation
												End Site
												{
													OFFSET -188.809540 -114.533607 132.431396
												}
											}
										}
									}
								}
								JOINT mixamorig:RightHandIndex1
								{
									OFFSET -9.108284 -0.517868 2.259835
									CHANNELS 6 Xposition Yposition Zposition Xrotation Yrotation Zrotation
									JOINT mixamorig:RightHandIndex2
									{
										OFFSET -3.699989 0.000000 0.001215
										CHANNELS 6 Xposition Yposition Zposition Xrotation Yrotation Zrotation
										JOINT mixamorig:RightHandIndex3
										{
											OFFSET -2.850006 0.000031 -0.000522
											CHANNELS 6 Xposition Yposition Zposition Xrotation Yrotation Zrotation
											JOINT mixamorig:RightHandIndex4
											{
												OFFSET -2.772186 -0.000015 -0.000020
												CHANNELS 6 Xposition Yposition Zposition Xrotation Yrotation Zrotation
												End Site
												{
													OFFSET -277.218445 0.000000 -0.050231
												}
											}
										}
									}
								}
								JOINT mixamorig:RightHandMiddle1
								{
									OFFSET -9.532516 -0.000031 -0.000023
									CHANNELS 6 Xposition Yposition Zposition Xrotation Yrotation Zrotation
									JOINT mixamorig:RightHandMiddle2
									{
										OFFSET -3.700005 -0.000015 0.003713
										CHANNELS 6 Xposition Yposition Zposition Xrotation Yrotation Zrotation
										JOINT mixamorig:RightHandMiddle3
										{
											OFFSET -2.949974 0.000015 -0.002054
											CHANNELS 6 Xposition Yposition Zposition Xrotation Yrotation Zrotation
											JOINT mixamorig:RightHandMiddle4
											{
												OFFSET -2.946640 0.000000 -0.000156
												CHANNELS 6 Xposition Yposition Zposition Xrotation Yrotation Zrotation
												End Site
												{
													OFFSET -294.664337 0.000000 -0.113670
												}
											}
										}
									}
								}
								JOINT mixamorig:RightHandRing1
								{
									OFFSET -9.103600 -0.043076 -1.865134
									CHANNELS 6 Xposition Yposition Zposition Xrotation Yrotation Zrotation
									JOINT mixamorig:RightHandRing2
									{
										OFFSET -3.379288 0.000000 -0.001055
										CHANNELS 6 Xposition Yposition Zposition Xrotation Yrotation Zrotation
										JOINT mixamorig:RightHandRing3
										{
											OFFSET -2.889687 -0.000015 0.000379
											CHANNELS 6 Xposition Yposition Zposition Xrotation Yrotation Zrotation
											JOINT mixamorig:RightHandRing4
											{
												OFFSET -2.638809 -0.000015 0.000941
												CHANNELS 6 Xposition Yposition Zposition Xrotation Yrotation Zrotation
												End Site
												{
													OFFSET -263.880371 0.000000 0.516020
												}
											}
										}
									}
								}
								JOINT mixamorig:RightHandPinky1
								{
									OFFSET -8.076683 -0.486710 -3.806280
									CHANNELS 6 Xposition Yposition Zposition Xrotation Yrotation Zrotation
									JOINT mixamorig:RightHandPinky2
									{
										OFFSET -3.600014 -0.000015 -0.003747
										CHANNELS 6 Xposition Yposition Zposition Xrotation Yrotation Zrotation
										JOINT mixamorig:RightHandPinky3
										{
											OFFSET -2.099983 0.000000 -0.005739
											CHANNELS 6 Xposition Yposition Zposition Xrotation Yrotation Zrotation
											JOINT mixamorig:RightHandPinky4
											{
												OFFSET -2.115768 -0.000031 -0.003680
												CHANNELS 6 Xposition Yposition Zposition Xrotation Yrotation Zrotation
												End Site
												{
													OFFSET -211.577087 0.000000 -0.350686
												}
											}
										}
									}
								}
							}
						}
					}
				}
				JOINT mixamorig:LeftShoulder
				{
					OFFSET 4.570447 11.014725 -2.160855
					CHANNELS 6 Xposition Yposition Zposition Xrotation Yrotation Zrotation
					JOINT mixamorig:LeftArm
					{
						OFFSET 10.592371 -0.524597 -2.232119
						CHANNELS 6 Xposition Yposition Zposition Xrotation Yrotation Zrotation
						JOINT mixamorig:LeftForeArm
						{
							OFFSET 27.841532 -0.000031 0.000026
							CHANNELS 6 Xposition Yposition Zposition Xrotation Yrotation Zrotation
							JOINT mixamorig:LeftHand
							{
								OFFSET 28.328846 -0.000061 0.000022
								CHANNELS 6 Xposition Yposition Zposition Xrotation Yrotation Zrotation
								JOINT mixamorig:LeftHandThumb1
								{
									OFFSET 2.466141 -1.576172 2.681732
									CHANNELS 6 Xposition Yposition Zposition Xrotation Yrotation Zrotation
									JOINT mixamorig:LeftHandThumb2
									{
										OFFSET 3.217812 -1.872070 1.916482
										CHANNELS 6 Xposition Yposition Zposition Xrotation Yrotation Zrotation
										JOINT mixamorig:LeftHandThumb3
										{
											OFFSET 2.656029 -1.528778 1.514513
											CHANNELS 6 Xposition Yposition Zposition Xrotation Yrotation Zrotation
											JOINT mixamorig:LeftHandThumb4
											{
												OFFSET 2.020889 -1.154053 1.115139
												CHANNELS 6 Xposition Yposition Zposition Xrotation Yrotation Zrotation
												End Site
												{
													OFFSET 190.885437 -115.081749 130.048782
												}
											}
										}
									}
								}
								JOINT mixamorig:LeftHandIndex1
								{
									OFFSET 9.109314 -0.518021 2.259871
									CHANNELS 6 Xposition Yposition Zposition Xrotation Yrotation Zrotation
									JOINT mixamorig:LeftHandIndex2
									{
										OFFSET 3.699989 0.000000 -0.000322
										CHANNELS 6 Xposition Yposition Zposition Xrotation Yrotation Zrotation
										JOINT mixamorig:LeftHandIndex3
										{
											OFFSET 2.850006 0.000000 0.000352
											CHANNELS 6 Xposition Yposition Zposition Xrotation Yrotation Zrotation
											JOINT mixamorig:LeftHandIndex4
											{
												OFFSET 2.774864 -0.000031 -0.000027
												CHANNELS 6 Xposition Yposition Zposition Xrotation Yrotation Zrotation
												End Site
												{
													OFFSET 277.486267 0.000000 -0.009857
												}
											}
										}
									}
								}
								JOINT mixamorig:LeftHandMiddle1
								{
									OFFSET 9.533394 0.000061 0.000044
									CHANNELS 6 Xposition Yposition Zposition Xrotation Yrotation Zrotation
									JOINT mixamorig:LeftHandMiddle2
									{
										OFFSET 3.699989 -0.000015 -0.000231
										CHANNELS 6 Xposition Yposition Zposition Xrotation Yrotation Zrotation
										JOINT mixamorig:LeftHandMiddle3
										{
											OFFSET 2.949997 -0.000015 -0.000059
											CHANNELS 6 Xposition Yposition Zposition Xrotation Yrotation Zrotation
											JOINT mixamorig:LeftHandMiddle4
											{
												OFFSET 2.952896 0.000031 0.000063
												CHANNELS 6 Xposition Yposition Zposition Xrotation Yrotation Zrotation
												End Site
												{
													OFFSET 295.289337 0.000000 0.022810
												}
											}
										}
									}
								}
								JOINT mixamorig:LeftHandRing1
								{
									OFFSET 9.104523 -0.042999 -1.865074
									CHANNELS 6 Xposition Yposition Zposition Xrotation Yrotation Zrotation
									JOINT mixamorig:LeftHandRing2
									{
										OFFSET 3.150009 -0.000031 0.000043
										CHANNELS 6 Xposition Yposition Zposition Xrotation Yrotation Zrotation
										JOINT mixamorig:LeftHandRing3
										{
											OFFSET 2.949982 -0.000015 0.000040
											CHANNELS 6 Xposition Yposition Zposition Xrotation Yrotation Zrotation
											JOINT mixamorig:LeftHandRing4
											{
												OFFSET 2.644348 0.000000 0.000057
												CHANNELS 6 Xposition Yposition Zposition Xrotation Yrotation Zrotation
												End Site
												{
													OFFSET 264.434631 0.000000 0.012105
												}
											}
										}
									}
								}
								JOINT mixamorig:LeftHandPinky1
								{
									OFFSET 8.077789 -0.486847 -3.806259
									CHANNELS 6 Xposition Yposition Zposition Xrotation Yrotation Zrotation
									JOINT mixamorig:LeftHandPinky2
									{
										OFFSET 3.599953 0.000031 0.014727
										CHANNELS 6 Xposition Yposition Zposition Xrotation Yrotation Zrotation
										JOINT mixamorig:LeftHandPinky3
										{
											OFFSET 2.100021 0.000015 0.007705
											CHANNELS 6 Xposition Yposition Zposition Xrotation Yrotation Zrotation
											JOINT mixamorig:LeftHandPinky4
											{
												OFFSET 2.125504 0.000031 0.007517
												CHANNELS 6 Xposition Yposition Zposition Xrotation Yrotation Zrotation
												End Site
												{
													OFFSET 212.550781 0.000000 0.625752
												}
											}
										}
									}
								}
							}
						}
					}
				}
			}
		}
	}
	JOINT mixamorig:RightUpLeg
	{
		OFFSET -8.207787 -6.751648 -1.599560
		CHANNELS 6 Xposition Yposition Zposition Xrotation Yrotation Zrotation
		JOINT mixamorig:RightLeg
		{
			OFFSET -0.000002 -44.370117 0.345942
			CHANNELS 6 Xposition Yposition Zposition Xrotation Yrotation Zrotation
			JOINT mixamorig:RightFoot
			{
				OFFSET 0.000003 -44.423679 -3.043532
				CHANNELS 6 Xposition Yposition Zposition Xrotation Yrotation Zrotation
				JOINT mixamorig:RightToeBase
				{
					OFFSET -0.000002 -8.728671 10.710558
					CHANNELS 6 Xposition Yposition Zposition Xrotation Yrotation Zrotation
					JOINT mixamorig:RightToe_End
					{
						OFFSET -0.000001 -0.000679 9.278119
						CHANNELS 6 Xposition Yposition Zposition Xrotation Yrotation Zrotation
						End Site
						{
							OFFSET 0.000000 -0.067690 927.812134
						}
					}
				}
			}
		}
	}
	JOINT mixamorig:LeftUpLeg
	{
		OFFSET 8.207793 -6.751686 -1.599556
		CHANNELS 6 Xposition Yposition Zposition Xrotation Yrotation Zrotation
		JOINT mixamorig:LeftLeg
		{
			OFFSET -0.000004 -44.370014 0.346954
			CHANNELS 6 Xposition Yposition Zposition Xrotation Yrotation Zrotation
			JOINT mixamorig:LeftFoot
			{
				OFFSET -0.000001 -44.423672 -3.044401
				CHANNELS 6 Xposition Yposition Zposition Xrotation Yrotation Zrotation
				JOINT mixamorig:LeftToeBase
				{
					OFFSET -0.000002 -8.728669 10.710558
					CHANNELS 6 Xposition Yposition Zposition Xrotation Yrotation Zrotation
					JOINT mixamorig:LeftToe_End
					{
						OFFSET -0.000003 -0.000679 9.278133
						CHANNELS 6 Xposition Yposition Zposition Xrotation Yrotation Zrotation
						End Site
						{
							OFFSET 0.000000 -0.068021 927.813477
						}
					}
				}
			}
		}
	}
}
MOTION
Frames: 3
Frame Time: 0.033333
0.000006 104.270477 1.554256 0.000010 0.000003 -0.000113 -0.000005 10.181587 0.131522 0.000001 -0.000003 0.000084 -0.000000 9.893967 -1.470711 0.000001 0.000000 -0.000000 -0.000000 9.220802 -1.370642 0.000000 -0.000000 -0.000000 0.000001 16.740433 -2.049030 0.000000 -0.000000 -0.000000 0.000000 9.617859 1.685014 0.000000 0.000000 0.000000 0.000002 22.037384 7.501101 0.000000 -0.000000 0.000000 -4.569968 11.014880 -2.160881 0.000008 0.000001 -0.000038 -10.592871 -0.524794 -2.231877 75.024888 35.941217 -27.964261 -27.841526 0.000013 0.000559 -48.408593 105.387708 61.075422 -28.328827 -0.000007 0.000029 -0.000321 -0.000045 0.000009 -2.464401 -1.573916 2.682369 -34.154907 -148.980004 16.413506 -3.215222 -1.872482 1.924604 144.409242 33.614609 40.197787 -2.654952 -1.527858 1.513053 146.653273 27.846702 -27.726718 -2.018845 -1.151995 1.108060 -0.000004 -0.000000 0.000000 -9.108365 -0.517569 2.260180 112.067340 14.509371 -21.469679 -3.700065 0.000316 0.001557 109.210231 11.364756 -15.911392 -2.850086 0.000367 -0.000191 108.120392 9.540804 -13.132272 -2.772155 -0.000014 -0.000017 -0.000002 0.000003 -0.000000 -9.532595 0.000273 0.000288 104.687730 15.434231 -20.102456 -3.700046 0.000333 0.004028 107.156673 11.210015 -15.025636 -2.950035 0.000342 -0.001731 108.559949 10.843270 -15.027340 -2.946631 0.000000 -0.000157 -0.000001 0.000000 -0.000000 -9.103708 -0.042771 -1.864809 101.945744 19.078078 -23.369175 -3.379348 0.000314 -0.000729 109.810447 11.370065 -16.152306 -2.889774 0.000340 0.000737 114.917250 9.221162 -14.480078 -2.638816 -0.000002 0.000941 0.000001 0.000000 -0.000000 -8.076792 -0.486413 -3.806019 82.669338 25.253853 -22.151448 -3.600058 0.000267 -0.003515 87.072665 14.531134 -13.451503 -2.100043 0.000292 -0.005484 90.806764 8.372442 -8.259924 -2.115764 -0.000031 -0.003677 0.000001 -0.000001 -0.000002 4.570446 11.014691 -2.160851 -0.000018 0.000010 -0.000021 10.592519 -0.524527 -2.232381 62.508232 -65.804003 42.875993 27.841757 -0.000063 -0.000115 229.137479 -76.278508 240.419107 28.328831 0.000002 0.000027 0.000018 -0.000089 0.000000 2.466128 -1.576173 2.681868 90.615778 123.125553 -137.833805 3.217661 -1.872063 1.916526 167.532847 54.927200 144.387467 2.655671 -1.528671 1.514593 125.939631 10.180680 218.557215 2.020887 -1.154067 1.115156 0.000004 0.000006 0.000004 9.109399 -0.517690 2.259834 153.209066 -5.299634 381.946391 3.700099 0.000216 -0.000423 118.442105 -17.274187 28.643092 2.850076 0.000092 0.000275 65.275749 -32.927826 21.434551 2.774885 0.000004 -0.000010 -0.000002 0.000002 -0.000002 9.533422 0.000286 -0.000117 105.734621 -1.007817 361.321351 3.700009 -0.000000 -0.000261 5.854587 0.061429 -0.003254 2.950020 -0.000005 0.000053 -30.378957 -3.376491 -0.917543 2.952864 -0.000031 0.000071 0.000001 -0.000001 0.000001 9.104515 -0.042796 -1.865251 89.580629 2.407132 357.611930 3.149992 0.000017 0.000011 0.179386 13.304750 -0.021097 2.949990 0.000016 0.000151 -35.376876 2.595707 0.827435 2.644327 0.000030 0.000061 -0.000001 0.000000 -0.000001 8.077768 -0.486712 -3.806457 72.030909 8.048721 714.434563 3.599936 0.000002 0.014728 -6.668123 14.960338 0.796927 2.100003 -0.000004 0.007772 -25.943078 15.433391 3.426293 2.125498 -0.000017 0.007511 -0.000001 -0.000001 -0.000001 -8.207786 -6.751667 -1.599560 -0.077001 -0.000003 0.000080 -0.000002 -44.370110 0.345938 0.153719 -0.000000 -0.000000 0.000000 -44.423679 -3.043532 -0.076700 0.000000 -0.000002 -0.000006 -8.728667 10.710559 -0.000009 -0.000000 -0.000000 -0.000001 -0.000679 9.278123 0.000000 -0.000000 -0.000000 8.207792 -6.751710 -1.599556 -0.074518 -0.000003 0.000081 -0.000002 -44.370014 0.346960 0.148822 0.000002 0.000000 -0.000001 -44.423664 -3.044403 -0.074314 0.000000 -0.000002 -0.000004 -8.728671 10.710558 0.000007 -0.000000 -0.000000 0.000000 -0.000680 9.278137 -0.000000 0.000000 -0.000001 
0.000006 104.270477 1.554256 0.000010 0.000003 -0.000113 -0.000005 10.181587 0.131522 0.000001 -0.000003 0.000084 -0.000000 9.893967 -1.470711 0.000001 0.000000 -0.000000 -0.000000 9.220802 -1.370642 0.000000 -0.000000 -0.000000 0.000001 16.740433 -2.049030 0.000000 -0.000000 -0.000000 0.000000 9.617859 1.685014 0.000000 0.000000 0.000000 0.000002 22.037384 7.501101 0.000000 -0.000000 0.000000 -4.569968 11.014880 -2.160881 0.000008 0.000001 -0.000038 -10.592870 -0.524790 -2.231878 74.961224 35.930015 -27.924428 -27.841513 0.000001 0.000552 -48.578986 105.890383 61.733504 -28.328815 0.000021 0.000030 -0.000317 -0.000044 0.000008 -2.464390 -1.573877 2.682339 -35.552405 -150.023439 14.154981 -3.215206 -1.872473 1.924609 144.009252 33.588692 41.653304 -2.654957 -1.527857 1.513045 147.516472 27.855228 -26.543437 -2.018841 -1.151999 1.108065 -0.000003 0.000003 0.000002 -9.108359 -0.517553 2.260188 112.176554 14.790087 -21.922558 -3.700060 0.000309 0.001555 108.743066 11.768650 -16.334561 -2.850080 0.000378 -0.000207 107.540242 9.807604 -13.356436 -2.772155 -0.000014 -0.000020 0.000001 0.000002 -0.000000 -9.532582 0.000274 0.000292 104.709648 15.350254 -20.002549 -3.700049 0.000326 0.004021 106.643794 11.345667 -15.067908 -2.950052 0.000319 -0.001761 107.739513 10.973627 -14.982259 -2.946617 -0.000000 -0.000152 0.000003 0.000001 -0.000000 -9.103685 -0.042765 -1.864821 101.581264 18.668486 -22.726771 -3.379349 0.000311 -0.000715 109.495398 11.086261 -15.661680 -2.889768 0.000329 0.000714 114.418127 9.049785 -14.079527 -2.638814 -0.000003 0.000940 -0.000001 0.000001 0.000002 -8.076769 -0.486413 -3.806021 82.588346 24.650561 -21.585674 -3.600064 0.000245 -0.003513 87.429037 14.044600 -13.070860 -2.100005 0.000301 -0.005489 90.661418 7.996307 -7.859738 -2.115750 -0.000046 -0.003674 0.000001 -0.000001 -0.000004 4.570446 11.014691 -2.160851 -0.000018 0.000010 -0.000021 10.592517 -0.524546 -2.232381 61.326322 -66.549033 42.519830 27.841753 -0.000062 -0.000116 226.973292 -76.718645 237.537805 28.328833 -0.000028 0.000018 0.000022 -0.000089 -0.000001 2.466141 -1.576161 2.681876 77.833325 126.330496 -129.428492 3.217662 -1.872064 1.916538 169.546428 49.510733 138.774008 2.655676 -1.528552 1.514563 125.117454 -9.648027 243.932229 2.020898 -1.154056 1.115145 0.000002 0.000006 0.000006 9.109419 -0.517826 2.259784 108.058729 -23.231222 391.609333 3.700014 -0.000024 -0.000323 11.900597 -28.992640 3.092294 2.850011 0.000020 0.000410 -8.737351 -20.755842 -1.603247 2.774882 -0.000026 -0.000028 -0.000000 -0.000002 -0.000001 9.533444 0.000264 -0.000087 99.273883 -11.059842 372.986932 3.700012 0.000008 -0.000265 6.887362 -10.185559 0.614200 2.949996 -0.000013 0.000010 -19.647341 -8.671713 -1.504573 2.952865 -0.000017 0.000053 0.000001 0.000006 0.000000 9.104566 -0.042810 -1.865222 88.737449 -10.892694 370.658493 3.149993 0.000008 0.000020 -4.977770 7.590119 0.330232 2.949992 -0.000006 0.000146 -31.661209 3.585701 1.016555 2.644325 0.000031 0.000058 -0.000001 0.000000 0.000000 8.077794 -0.486699 -3.806437 77.673902 -2.542048 722.443534 3.599951 -0.000021 0.014717 -8.683988 16.761329 1.188081 2.100002 0.000005 0.007759 -26.922024 19.720032 4.596436 2.125501 -0.000014 0.007513 0.000001 0.000008 0.000001 -8.207786 -6.751667 -1.599560 -0.077001 -0.000003 0.000080 -0.000002 -44.370110 0.345938 0.153719 -0.000000 -0.000000 0.000000 -44.423679 -3.043532 -0.076700 0.000000 -0.000002 -0.000006 -8.728667 10.710559 -0.000009 -0.000000 -0.000000 -0.000001 -0.000679 9.278123 0.000000 -0.000000 -0.000000 8.207792 -6.751710 -1.599556 -0.074518 -0.000003 0.000081 -0.000002 -44.370014 0.346960 0.148822 0.000002 0.000000 -0.000001 -44.423664 -3.044403 -0.074314 0.000000 -0.000002 -0.000004 -8.728671 10.710558 0.000007 -0.000000 -0.000000 0.000000 -0.000680 9.278137 -0.000000 0.000000 -0.000001 
0.000006 104.270477 1.554256 0.000010 0.000003 -0.000113 -0.000005 10.181587 0.131522 0.000001 -0.000003 0.000084 -0.000000 9.893967 -1.470711 0.000001 0.000000 -0.000000 -0.000000 9.220802 -1.370642 0.000000 -0.000000 -0.000000 0.000001 16.740433 -2.049030 0.000000 -0.000000 -0.000000 0.000000 9.617859 1.685014 0.000000 0.000000 0.000000 0.000002 22.037384 7.501101 0.000000 -0.000000 0.000000 -4.569968 11.014880 -2.160881 0.000008 0.000001 -0.000038 -10.592869 -0.524786 -2.231869 74.864221 36.319743 -28.188098 -27.841515 0.000015 0.000562 -48.708873 106.374432 62.331371 -28.328823 0.000023 0.000026 -0.000320 -0.000043 0.000005 -2.464417 -1.573888 2.682342 -34.786468 -149.667613 15.496306 -3.215233 -1.872493 1.924603 145.609361 33.760652 36.945846 -2.654963 -1.527873 1.513062 147.193254 27.821536 -27.293161 -2.018838 -1.152007 1.108069 -0.000008 -0.000001 0.000004 -9.108375 -0.517561 2.260181 112.754108 14.738471 -22.081073 -3.700045 0.000319 0.001559 109.213263 11.474483 -16.065180 -2.850085 0.000350 -0.000222 108.056946 9.544897 -13.122716 -2.772164 0.000002 -0.000020 -0.000004 -0.000002 0.000000 -9.532601 0.000260 0.000287 104.854646 15.404884 -20.124169 -3.700069 0.000323 0.004026 106.602150 11.170157 -14.823175 -2.950063 0.000341 -0.001730 108.148027 10.814881 -14.876354 -2.946632 0.000000 -0.000156 -0.000001 -0.000001 -0.000000 -9.103707 -0.042769 -1.864830 101.953202 18.691477 -22.901959 -3.379339 0.000309 -0.000727 109.123747 11.228959 -15.754453 -2.889760 0.000327 0.000727 114.354067 9.136607 -14.195925 -2.638822 -0.000017 0.000939 0.000001 0.000001 -0.000001 -8.076809 -0.486408 -3.806022 83.505667 24.576464 -21.861629 -3.600056 0.000252 -0.003511 87.160973 14.306991 -13.259336 -2.100012 0.000311 -0.005466 90.612814 8.253910 -8.112664 -2.115778 -0.000051 -0.003681 0.000000 0.000001 -0.000002 4.570446 11.014691 -2.160851 -0.000018 0.000010 -0.000021 10.592518 -0.524545 -2.232380 61.050191 -66.701613 42.419266 27.841759 -0.000069 -0.000114 224.959794 -76.160448 235.678683 28.328840 -0.000014 0.000026 0.000018 -0.000089 -0.000000 2.466165 -1.576142 2.681880 90.534560 136.044008 -141.885801 3.217676 -1.872061 1.916532 178.973469 52.534646 128.184646 2.655664 -1.528546 1.514576 124.255853 -5.617793 239.985281 2.020907 -1.154050 1.115145 0.000001 0.000003 -0.000001 9.109428 -0.517806 2.259772 111.086333 -21.618558 391.079994 3.700018 -0.000025 -0.000331 18.098622 -26.046498 4.224837 2.850032 0.000002 0.000409 -4.573603 -20.836213 -0.841498 2.774899 -0.000031 -0.000023 -0.000003 -0.000002 -0.000002 9.533447 0.000273 -0.000107 97.961421 -8.606834 369.878977 3.700014 -0.000020 -0.000255 10.636587 -8.339023 0.777257 2.950012 -0.000025 -0.000007 -15.049893 -8.563135 -1.133362 2.952881 -0.000015 0.000068 -0.000000 -0.000002 0.000000 9.104583 -0.042809 -1.865224 95.292067 -10.311984 371.307142 3.150002 0.000004 0.000011 2.861706 5.784806 -0.144656 2.949987 0.000016 0.000129 -23.923777 1.673729 0.354287 2.644325 0.000016 0.000059 0.000000 0.000000 -0.000000 8.077837 -0.486651 -3.806436 97.063087 -10.832619 732.871484 3.599944 -0.000003 0.014726 -3.057339 11.783391 0.260997 2.099998 -0.000009 0.007768 -24.719751 14.594453 3.073130 2.125497 0.000002 0.007518 0.000005 -0.000000 -0.000000 -8.207786 -6.751667 -1.599560 -0.077001 -0.000003 0.000080 -0.000002 -44.370110 0.345938 0.153719 -0.000000 -0.000000 0.000000 -44.423679 -3.043532 -0.076700 0.000000 -0.000002 -0.000006 -8.728667 10.710559 -0.000009 -0.000000 -0.000000 -0.000001 -0.000679 9.278123 0.000000 -0.000000 -0.000000 8.207792 -6.751710 -1.599556 -0.074518 -0.000003 0.000081 -0.000002 -44.370014 0.346960 0.148822 0.000002 0.000000 -0.000001 -44.423664 -3.044403 -0.074314 0.000000 -0.000002 -0.000004 -8.728671 10.710558 0.000007 -0.000000 -0.000000 0.000000 -0.000680 9.278137 -0.000000 0.000000 -0.000001 
